<?xml version="1.0" encoding="utf-8"?>
<!-- Generator: Adobe Illustrator 26.3.0, SVG Export Plug-In . SVG Version: 6.00 Build 0)  -->
<svg version="1.1" id="Layer_1" xmlns="http://www.w3.org/2000/svg" xmlns:xlink="http://www.w3.org/1999/xlink" x="0px" y="0px"
	 viewBox="0 0 600 600" style="enable-background:new 0 0 600 600;" xml:space="preserve">
<style type="text/css">
	.st0{fill:#0CB6E0;}
	.st1{fill:#A09E9E;}
	.st2{fill:#FFFFFF;}
</style>
<g>
	<g>
		
			<rect x="208.7" y="242.3" transform="matrix(0.7071 -0.7071 0.7071 0.7071 -134.0876 276.2829)" class="st0" width="115.5" height="115.5"/>
	</g>
	<g>
		
			<rect x="116.3" y="334.6" transform="matrix(0.7071 -0.7071 0.7071 0.7071 -226.4842 238.013)" class="st1" width="115.5" height="115.5"/>
	</g>
	<g>
		
			<rect x="116.3" y="149.9" transform="matrix(0.7071 -0.7071 0.7071 0.7071 -95.8159 183.8882)" class="st1" width="115.5" height="115.5"/>
	</g>
	<g>
		
			<rect x="23.9" y="242.3" transform="matrix(0.7071 -0.7071 0.7071 0.7071 -188.2117 145.6152)" class="st0" width="115.5" height="115.5"/>
	</g>
	<polygon class="st0" points="266.5,218.3 184.9,300 266.5,381.7 600,381.7 600,218.3 	"/>
	<g>
		<path class="st2" d="M316.8,273.7v-29.6h11.7c2.2,0,4.2,0.4,5.7,1.3c1.6,0.9,2.8,2,3.6,3.5c0.8,1.5,1.2,3.2,1.2,5.2
			c0,2-0.4,3.7-1.3,5.2c-0.8,1.5-2.1,2.7-3.7,3.5c-1.6,0.8-3.5,1.3-5.8,1.3h-7.4v-5h6.4c1.2,0,2.2-0.2,3-0.6c0.8-0.4,1.4-1,1.8-1.7
			s0.6-1.6,0.6-2.6c0-1-0.2-1.8-0.6-2.6s-1-1.3-1.8-1.7c-0.8-0.4-1.8-0.6-3-0.6h-4.2v24.4H316.8z"/>
		<path class="st2" d="M343.2,273.7v-29.6h6.2v24.4h12.7v5.2H343.2z"/>
		<path class="st2" d="M372,273.7h-6.7l10.2-29.6h8.1l10.2,29.6h-6.7l-7.4-22.8h-0.2L372,273.7z M371.6,262.1h15.8v4.9h-15.8V262.1z
			"/>
		<path class="st2" d="M422,254.5h-6.3c-0.1-0.8-0.4-1.5-0.7-2.2c-0.4-0.6-0.8-1.2-1.4-1.6s-1.2-0.8-1.9-1c-0.7-0.2-1.5-0.4-2.4-0.4
			c-1.5,0-2.9,0.4-4,1.1c-1.1,0.8-2,1.9-2.6,3.3c-0.6,1.4-0.9,3.2-0.9,5.2c0,2.1,0.3,3.9,0.9,5.3c0.6,1.4,1.5,2.5,2.6,3.2
			c1.1,0.7,2.4,1.1,3.9,1.1c0.8,0,1.6-0.1,2.3-0.3c0.7-0.2,1.4-0.5,1.9-1s1-0.9,1.4-1.6c0.4-0.6,0.6-1.3,0.8-2.1l6.3,0
			c-0.2,1.4-0.6,2.7-1.2,3.9c-0.6,1.3-1.5,2.4-2.6,3.4c-1.1,1-2.4,1.8-3.9,2.3c-1.5,0.6-3.2,0.9-5.1,0.9c-2.6,0-5-0.6-7.1-1.8
			c-2.1-1.2-3.7-2.9-4.9-5.2c-1.2-2.3-1.8-5-1.8-8.2c0-3.2,0.6-6,1.8-8.2c1.2-2.3,2.9-4,4.9-5.2c2.1-1.2,4.4-1.8,7-1.8
			c1.7,0,3.3,0.2,4.8,0.7c1.5,0.5,2.8,1.2,3.9,2.1c1.1,0.9,2.1,2,2.8,3.4C421.4,251.3,421.8,252.8,422,254.5z"/>
		<path class="st2" d="M431.1,273.7h-6.7l10.2-29.6h8.1l10.2,29.6h-6.7l-7.4-22.8h-0.2L431.1,273.7z M430.6,262.1h15.8v4.9h-15.8
			V262.1z"/>
		<path class="st2" d="M456.4,273.7v-29.6H468c2.2,0,4.1,0.4,5.7,1.2c1.6,0.8,2.8,1.9,3.6,3.4c0.8,1.4,1.2,3.1,1.2,5.1
			c0,2-0.4,3.6-1.3,5.1s-2.1,2.5-3.7,3.2c-1.6,0.7-3.5,1.1-5.8,1.1h-7.8v-5h6.8c1.2,0,2.2-0.2,3-0.5c0.8-0.3,1.4-0.8,1.8-1.5
			s0.6-1.5,0.6-2.4c0-1-0.2-1.8-0.6-2.5c-0.4-0.7-1-1.2-1.8-1.5c-0.8-0.4-1.8-0.5-3-0.5h-4.2v24.4H456.4z M472.3,260.2l7.3,13.5
			h-6.9l-7.2-13.5H472.3z"/>
		<path class="st2" d="M483,273.7v-29.6h19.9v5.2h-13.7v7h12.6v5.2h-12.6v7.1H503v5.2H483z"/>
		<path class="st2" d="M524,252.6c-0.1-1.2-0.6-2.1-1.5-2.7c-0.9-0.6-2.1-1-3.6-1c-1,0-1.9,0.1-2.6,0.4c-0.7,0.3-1.2,0.7-1.6,1.2
			c-0.4,0.5-0.6,1.1-0.6,1.7c0,0.5,0.1,1,0.3,1.4c0.2,0.4,0.6,0.7,1,1s0.9,0.5,1.5,0.7c0.6,0.2,1.2,0.4,1.8,0.5l2.7,0.6
			c1.3,0.3,2.5,0.7,3.6,1.2s2,1.1,2.8,1.8c0.8,0.7,1.4,1.5,1.8,2.5c0.4,1,0.7,2,0.7,3.3c0,1.8-0.5,3.4-1.4,4.7
			c-0.9,1.3-2.2,2.3-3.9,3.1c-1.7,0.7-3.8,1.1-6.2,1.1c-2.4,0-4.5-0.4-6.2-1.1c-1.8-0.7-3.1-1.8-4.1-3.3c-1-1.4-1.5-3.2-1.6-5.3h6
			c0.1,1,0.4,1.8,0.9,2.5c0.5,0.7,1.2,1.2,2,1.5c0.9,0.3,1.8,0.5,2.9,0.5c1.1,0,2-0.2,2.8-0.5c0.8-0.3,1.4-0.7,1.8-1.3
			c0.4-0.5,0.7-1.2,0.7-1.9c0-0.7-0.2-1.2-0.6-1.7c-0.4-0.5-1-0.8-1.7-1.2c-0.7-0.3-1.7-0.6-2.7-0.9l-3.2-0.8
			c-2.5-0.6-4.5-1.6-5.9-2.8c-1.4-1.3-2.2-3-2.2-5.2c0-1.8,0.5-3.4,1.4-4.7c1-1.3,2.3-2.4,4-3.1c1.7-0.8,3.6-1.1,5.8-1.1
			c2.2,0,4.1,0.4,5.8,1.1c1.6,0.7,2.9,1.8,3.8,3.1c0.9,1.3,1.4,2.9,1.4,4.6H524z"/>
		<path class="st2" d="M317.5,325.4c-0.8,0-1.5-0.1-2.2-0.2c-0.7-0.1-1.2-0.3-1.7-0.5l1.4-4.6c0.7,0.2,1.4,0.3,2,0.4
			c0.6,0,1.1-0.1,1.5-0.4c0.4-0.3,0.8-0.8,1-1.5l0.4-0.9l-8-22.8h6.5l4.6,16.3h0.2l4.6-16.3h6.5l-8.6,24.6c-0.4,1.2-1,2.2-1.7,3.1
			c-0.7,0.9-1.6,1.6-2.7,2.1C320.3,325.1,319,325.4,317.5,325.4z"/>
		<path class="st2" d="M373.1,297.8h-6.3c-0.1-0.8-0.4-1.5-0.7-2.2c-0.4-0.6-0.8-1.2-1.4-1.6c-0.6-0.5-1.2-0.8-1.9-1
			c-0.7-0.2-1.5-0.4-2.4-0.4c-1.5,0-2.9,0.4-4,1.1c-1.1,0.8-2,1.9-2.6,3.3c-0.6,1.4-0.9,3.2-0.9,5.2c0,2.1,0.3,3.9,0.9,5.3
			s1.5,2.5,2.6,3.2s2.4,1.1,3.9,1.1c0.8,0,1.6-0.1,2.3-0.3c0.7-0.2,1.4-0.5,1.9-1s1-0.9,1.4-1.6c0.4-0.6,0.6-1.3,0.8-2.1l6.3,0
			c-0.2,1.4-0.6,2.7-1.2,3.9c-0.6,1.3-1.5,2.4-2.6,3.4c-1.1,1-2.4,1.8-3.9,2.3c-1.5,0.6-3.2,0.9-5.1,0.9c-2.6,0-5-0.6-7.1-1.8
			c-2.1-1.2-3.7-2.9-4.9-5.2c-1.2-2.3-1.8-5-1.8-8.2c0-3.2,0.6-6,1.8-8.2c1.2-2.3,2.9-4,4.9-5.2c2.1-1.2,4.4-1.8,7-1.8
			c1.7,0,3.3,0.2,4.8,0.7c1.5,0.5,2.8,1.2,3.9,2.1s2.1,2,2.8,3.4C372.5,294.6,372.9,296.1,373.1,297.8z"/>
		<path class="st2" d="M404.8,302.3c0,3.2-0.6,6-1.8,8.2c-1.2,2.3-2.9,4-5,5.2c-2.1,1.2-4.4,1.8-7.1,1.8c-2.6,0-5-0.6-7.1-1.8
			c-2.1-1.2-3.7-2.9-5-5.2c-1.2-2.3-1.8-5-1.8-8.2c0-3.2,0.6-6,1.8-8.2c1.2-2.3,2.9-4,5-5.2c2.1-1.2,4.4-1.8,7.1-1.8
			c2.6,0,5,0.6,7.1,1.8c2.1,1.2,3.7,2.9,5,5.2C404.2,296.3,404.8,299,404.8,302.3z M398.5,302.3c0-2.1-0.3-3.8-0.9-5.3
			s-1.5-2.5-2.6-3.3c-1.1-0.7-2.4-1.1-4-1.1c-1.5,0-2.8,0.4-4,1.1c-1.1,0.7-2,1.8-2.6,3.3c-0.6,1.4-0.9,3.2-0.9,5.3
			c0,2.1,0.3,3.8,0.9,5.3c0.6,1.4,1.5,2.5,2.6,3.3c1.1,0.7,2.4,1.1,4,1.1c1.5,0,2.8-0.4,4-1.1c1.1-0.7,2-1.8,2.6-3.3
			C398.1,306.1,398.5,304.4,398.5,302.3z"/>
		<path class="st2" d="M435.5,297.8h-6.3c-0.1-0.8-0.4-1.5-0.7-2.2c-0.4-0.6-0.8-1.2-1.4-1.6c-0.6-0.5-1.2-0.8-1.9-1
			c-0.7-0.2-1.5-0.4-2.4-0.4c-1.5,0-2.9,0.4-4,1.1c-1.1,0.8-2,1.9-2.6,3.3c-0.6,1.4-0.9,3.2-0.9,5.2c0,2.1,0.3,3.9,0.9,5.3
			c0.6,1.4,1.5,2.5,2.6,3.2s2.4,1.1,3.9,1.1c0.8,0,1.6-0.1,2.3-0.3c0.7-0.2,1.4-0.5,1.9-1s1-0.9,1.4-1.6c0.4-0.6,0.6-1.3,0.8-2.1
			l6.3,0c-0.2,1.4-0.6,2.7-1.2,3.9c-0.6,1.3-1.5,2.4-2.6,3.4c-1.1,1-2.4,1.8-3.9,2.3c-1.5,0.6-3.2,0.9-5.1,0.9c-2.6,0-5-0.6-7.1-1.8
			c-2.1-1.2-3.7-2.9-4.9-5.2c-1.2-2.3-1.8-5-1.8-8.2c0-3.2,0.6-6,1.8-8.2c1.2-2.3,2.9-4,4.9-5.2c2.1-1.2,4.4-1.8,7-1.8
			c1.7,0,3.3,0.2,4.8,0.7c1.5,0.5,2.8,1.2,3.9,2.1s2.1,2,2.8,3.4C434.8,294.6,435.3,296.1,435.5,297.8z"/>
		<path class="st2" d="M446.2,287.5V317H440v-29.6H446.2z"/>
		<path class="st2" d="M476.1,287.5V317h-5.4l-12.9-18.6h-0.2V317h-6.2v-29.6h5.5l12.8,18.6h0.3v-18.6H476.1z"/>
		<path class="st2" d="M486.3,317h-6.7l10.2-29.6h8.1l10.2,29.6h-6.7l-7.4-22.8h-0.2L486.3,317z M485.9,305.4h15.8v4.9h-15.8V305.4z
			"/>
		<path class="st2" d="M527,296c-0.1-1.2-0.6-2.1-1.5-2.7c-0.9-0.6-2.1-1-3.6-1c-1,0-1.9,0.1-2.6,0.4c-0.7,0.3-1.2,0.7-1.6,1.2
			c-0.4,0.5-0.6,1.1-0.6,1.7c0,0.5,0.1,1,0.3,1.4c0.2,0.4,0.6,0.7,1,1c0.4,0.3,0.9,0.5,1.5,0.7c0.6,0.2,1.2,0.4,1.8,0.5l2.7,0.6
			c1.3,0.3,2.5,0.7,3.6,1.2c1.1,0.5,2,1.1,2.8,1.8c0.8,0.7,1.4,1.5,1.8,2.5c0.4,1,0.7,2,0.7,3.3c0,1.8-0.5,3.4-1.4,4.7
			c-0.9,1.3-2.2,2.3-3.9,3.1c-1.7,0.7-3.8,1.1-6.2,1.1c-2.4,0-4.5-0.4-6.2-1.1c-1.8-0.7-3.1-1.8-4.1-3.3c-1-1.4-1.5-3.2-1.6-5.3h6
			c0.1,1,0.4,1.8,0.9,2.5c0.5,0.7,1.2,1.2,2,1.5c0.9,0.3,1.8,0.5,2.9,0.5c1.1,0,2-0.2,2.8-0.5c0.8-0.3,1.4-0.7,1.8-1.3
			c0.4-0.5,0.7-1.2,0.7-1.9c0-0.7-0.2-1.2-0.6-1.7c-0.4-0.5-1-0.8-1.7-1.2c-0.7-0.3-1.7-0.6-2.7-0.9l-3.2-0.8
			c-2.5-0.6-4.5-1.6-5.9-2.8c-1.4-1.3-2.2-3-2.2-5.2c0-1.8,0.5-3.4,1.4-4.7c1-1.3,2.3-2.4,4-3.1c1.7-0.8,3.6-1.1,5.8-1.1
			c2.2,0,4.1,0.4,5.8,1.1c1.6,0.7,2.9,1.8,3.8,3.1c0.9,1.3,1.4,2.9,1.4,4.6H527z"/>
	</g>
	<g>
		<path class="st2" d="M352.1,357.8v-29.6h6.2v24.4H371v5.2H352.1z"/>
		<path class="st2" d="M401.2,343.1c0,3.2-0.6,6-1.8,8.2c-1.2,2.3-2.9,4-5,5.2c-2.1,1.2-4.4,1.8-7.1,1.8c-2.6,0-5-0.6-7.1-1.8
			c-2.1-1.2-3.7-2.9-4.9-5.2c-1.2-2.3-1.8-5-1.8-8.2c0-3.2,0.6-6,1.8-8.2c1.2-2.3,2.9-4,4.9-5.2c2.1-1.2,4.4-1.8,7.1-1.8
			c2.6,0,5,0.6,7.1,1.8c2.1,1.2,3.7,2.9,5,5.2C400.6,337.1,401.2,339.8,401.2,343.1z M394.8,343.1c0-2.1-0.3-3.8-0.9-5.3
			c-0.6-1.4-1.5-2.5-2.6-3.3c-1.1-0.7-2.4-1.1-4-1.1c-1.5,0-2.8,0.4-4,1.1c-1.1,0.7-2,1.8-2.6,3.3c-0.6,1.4-0.9,3.2-0.9,5.3
			c0,2.1,0.3,3.8,0.9,5.3c0.6,1.4,1.5,2.5,2.6,3.3c1.1,0.7,2.4,1.1,4,1.1c1.5,0,2.8-0.4,4-1.1s2-1.8,2.6-3.3
			C394.5,346.9,394.8,345.2,394.8,343.1z"/>
		<path class="st2" d="M405.8,328.3h7.7l8.1,19.9h0.3l8.1-19.9h7.7v29.6h-6.1v-19.2h-0.2l-7.6,19.1h-4.1l-7.6-19.2h-0.2v19.3h-6.1
			V328.3z"/>
		<path class="st2" d="M448.1,357.8h-6.7l10.2-29.6h8.1l10.2,29.6h-6.7l-7.4-22.8h-0.2L448.1,357.8z M447.6,346.2h15.8v4.9h-15.8
			V346.2z"/>
		<path class="st2" d="M488.7,336.8c-0.1-1.2-0.6-2.1-1.5-2.7c-0.9-0.6-2.1-1-3.6-1c-1,0-1.9,0.1-2.6,0.4c-0.7,0.3-1.2,0.7-1.6,1.2
			c-0.4,0.5-0.6,1.1-0.6,1.7c0,0.5,0.1,1,0.3,1.4c0.2,0.4,0.6,0.7,1,1c0.4,0.3,0.9,0.5,1.5,0.7c0.6,0.2,1.2,0.4,1.8,0.5l2.7,0.6
			c1.3,0.3,2.5,0.7,3.6,1.2s2,1.1,2.8,1.8c0.8,0.7,1.4,1.5,1.8,2.5c0.4,1,0.7,2,0.7,3.3c0,1.8-0.5,3.4-1.4,4.7
			c-0.9,1.3-2.2,2.3-3.9,3.1c-1.7,0.7-3.8,1.1-6.2,1.1c-2.4,0-4.5-0.4-6.2-1.1c-1.8-0.7-3.1-1.8-4.1-3.3c-1-1.4-1.5-3.2-1.6-5.3h6
			c0.1,1,0.4,1.8,0.9,2.5c0.5,0.7,1.2,1.2,2,1.5c0.9,0.3,1.8,0.5,2.9,0.5c1.1,0,2-0.2,2.8-0.5c0.8-0.3,1.4-0.7,1.8-1.3
			c0.4-0.5,0.7-1.2,0.7-1.9c0-0.7-0.2-1.2-0.6-1.7c-0.4-0.5-1-0.8-1.7-1.2c-0.7-0.3-1.7-0.6-2.7-0.9l-3.2-0.8
			c-2.5-0.6-4.5-1.6-5.9-2.8c-1.4-1.3-2.2-3-2.2-5.2c0-1.8,0.5-3.4,1.4-4.7c1-1.3,2.3-2.4,4-3.1c1.7-0.8,3.6-1.1,5.8-1.1
			c2.2,0,4.1,0.4,5.8,1.1c1.6,0.7,2.9,1.8,3.8,3.1c0.9,1.3,1.4,2.9,1.4,4.6H488.7z"/>
	</g>
</g>
</svg>
