<?xml version="1.0" encoding="utf-8"?>
<!-- Generator: Adobe Illustrator 26.3.0, SVG Export Plug-In . SVG Version: 6.00 Build 0)  -->
<svg version="1.1" id="Layer_1" xmlns="http://www.w3.org/2000/svg" xmlns:xlink="http://www.w3.org/1999/xlink" x="0px" y="0px"
	 viewBox="0 0 300 300" style="enable-background:new 0 0 300 300;" xml:space="preserve">
<style type="text/css">
	.st0{fill:#0CB6E0;}
	.st1{fill:#A09E9E;}
	.st2{fill:#FFFFFF;}
</style>
<g>
	
		<rect x="179.9" y="100.2" transform="matrix(0.7071 -0.7071 0.7071 0.7071 -38.8111 206.3014)" class="st0" width="99.5" height="99.5"/>
</g>
<g>
	
		<rect x="100.2" y="179.9" transform="matrix(0.7071 -0.7071 0.7071 0.7071 -118.4339 173.3219)" class="st1" width="99.5" height="99.5"/>
</g>
<g>
	
		<rect x="100.2" y="20.6" transform="matrix(0.7071 -0.7071 0.7071 0.7071 -5.83 126.6796)" class="st1" width="99.5" height="99.5"/>
</g>
<g>
	
		<rect x="20.6" y="100.2" transform="matrix(0.7071 -0.7071 0.7071 0.7071 -85.4528 93.6981)" class="st0" width="99.5" height="99.5"/>
</g>
<g>
	<path class="st2" d="M52.2,176.2v-52.4h20.7c4,0,7.4,0.8,10.2,2.3c2.8,1.5,4.9,3.6,6.4,6.3c1.5,2.7,2.2,5.7,2.2,9.2
		s-0.8,6.5-2.2,9.2c-1.5,2.7-3.7,4.7-6.5,6.2c-2.8,1.5-6.3,2.2-10.3,2.2H59.5v-8.9h11.4c2.1,0,3.9-0.4,5.3-1.1
		c1.4-0.7,2.4-1.8,3.1-3.1c0.7-1.3,1-2.8,1-4.6c0-1.7-0.3-3.3-1-4.6c-0.7-1.3-1.7-2.3-3.1-3s-3.2-1.1-5.3-1.1h-7.5v43.3H52.2z"/>
</g>
<g>
	<path class="st2" d="M136.3,255.8v-52.4h11.1v43.2h22.4v9.1H136.3z"/>
</g>
<g>
	<path class="st2" d="M140,101.6c-1.4,0-2.7-0.1-3.9-0.3c-1.2-0.2-2.2-0.5-3-0.8l2.5-8.1c1.3,0.4,2.4,0.6,3.5,0.6s1.9-0.2,2.7-0.7
		c0.8-0.5,1.4-1.4,1.9-2.6l0.6-1.7l-14.1-40.4h11.5l8.1,28.8h0.4l8.2-28.8h11.5l-15.3,43.5c-0.7,2.1-1.7,4-3,5.5
		c-1.3,1.6-2.8,2.8-4.7,3.7C145,101.2,142.7,101.6,140,101.6z"/>
</g>
<g>
	<path class="st2" d="M253.2,142.2H242c-0.2-1.4-0.6-2.7-1.3-3.9c-0.6-1.1-1.4-2.1-2.4-2.9s-2.1-1.4-3.4-1.8s-2.7-0.6-4.2-0.6
		c-2.7,0-5.1,0.7-7.1,2c-2,1.3-3.6,3.3-4.7,5.8c-1.1,2.5-1.7,5.6-1.7,9.3c0,3.7,0.6,6.9,1.7,9.4c1.1,2.5,2.7,4.5,4.7,5.8
		c2,1.3,4.3,1.9,7,1.9c1.5,0,2.9-0.2,4.1-0.6c1.3-0.4,2.4-1,3.4-1.7c1-0.8,1.8-1.7,2.5-2.8c0.7-1.1,1.1-2.3,1.4-3.7l11.2,0.1
		c-0.3,2.4-1,4.7-2.2,6.9c-1.2,2.2-2.7,4.2-4.6,6c-1.9,1.7-4.2,3.1-6.9,4.1c-2.7,1-5.7,1.5-9,1.5c-4.7,0-8.8-1.1-12.5-3.2
		c-3.7-2.1-6.6-5.2-8.7-9.2c-2.1-4-3.2-8.9-3.2-14.5c0-5.7,1.1-10.6,3.2-14.6c2.1-4,5.1-7.1,8.7-9.2s7.8-3.2,12.4-3.2
		c3,0,5.9,0.4,8.5,1.3s4.9,2.1,6.9,3.7c2,1.6,3.7,3.6,4.9,6C252,136.4,252.8,139.1,253.2,142.2z"/>
</g>
</svg>
